<svg width="60" height="60" viewBox="0 0 60 60" fill="none" xmlns="http://www.w3.org/2000/svg">
<path fill-rule="evenodd" clip-rule="evenodd" d="M30 0C46.542 0 60 13.458 60 30C60 46.542 46.542 60 30 60C13.458 60 0 46.542 0 30C0 13.458 13.458 0 30 0ZM30 4.5C15.939 4.5 4.5 15.939 4.5 30C4.5 44.061 15.939 55.5 30 55.5C44.061 55.5 55.5 44.061 55.5 30C55.5 15.939 44.061 4.5 30 4.5ZM35.9202 17.9991C36.7992 18.8811 36.7932 20.3061 35.9142 21.1821L27.0582 29.9991L35.9142 38.8191C36.7932 39.6951 36.7992 41.1171 35.9202 41.9991C35.4822 42.4431 34.9032 42.6621 34.3272 42.6621C33.7542 42.6621 33.1782 42.4431 32.7402 42.0051L22.2792 31.5951C21.8562 31.1721 21.6192 30.5991 21.6192 29.9991C21.6192 29.4021 21.8562 28.8291 22.2792 28.4061L32.7402 17.9931C33.6192 17.1171 35.0412 17.1171 35.9202 17.9991Z" fill="#6F6E6E"/>
</svg>
