<svg width="60" height="60" viewBox="0 0 60 60" fill="none" xmlns="http://www.w3.org/2000/svg">
<path fill-rule="evenodd" clip-rule="evenodd" d="M30 0C46.542 0 60 13.458 60 30C60 46.542 46.542 60 30 60C13.458 60 0 46.542 0 30C0 13.458 13.458 0 30 0ZM30 4.5C15.939 4.5 4.5 15.939 4.5 30C4.5 44.061 15.939 55.5 30 55.5C44.061 55.5 55.5 44.061 55.5 30C55.5 15.939 44.061 4.5 30 4.5ZM27.2628 17.9931L37.7208 28.4061C38.1438 28.8291 38.3808 29.4021 38.3808 29.9991C38.3808 30.5991 38.1438 31.1721 37.7208 31.5951L27.2628 42.0051C26.8248 42.4431 26.2488 42.6621 25.6758 42.6621C25.0998 42.6621 24.5208 42.4431 24.0828 41.9991C23.2068 41.1171 23.2098 39.6951 24.0888 38.8191L32.9448 29.9991L24.0888 21.1821C23.2098 20.3061 23.2068 18.8811 24.0828 17.9991C24.9588 17.1141 26.3808 17.1201 27.2628 17.9931Z" fill="#6F6E6E"/>
</svg>
