<svg width="42" height="42" viewBox="0 0 42 42" fill="none" xmlns="http://www.w3.org/2000/svg">
<path d="M0 21C0 18.4313 0.462082 15.9707 1.30618 13.6957L21 11.8696L40.6938 13.6957C41.5379 15.9707 42 18.4313 42 21C42 23.5687 41.5379 26.0293 40.6938 28.3043L21 30.1304L1.30618 28.3043C0.462082 26.0293 0 23.5687 0 21Z" fill="#FFDA44"/>
<path d="M40.6939 28.3043C37.7268 36.301 30.0294 42 21.0001 42C11.9708 42 4.27343 36.301 1.30627 28.3043H40.6939Z" fill="#D80027"/>
<path d="M1.30627 13.6957C4.27343 5.69894 11.9708 -1.23978e-05 21.0001 -1.23978e-05C30.0294 -1.23978e-05 37.7268 5.69894 40.6939 13.6957H1.30627Z" fill="#D80027"/>
</svg>
