<svg width="60" height="60" viewBox="0 0 60 60" fill="none" xmlns="http://www.w3.org/2000/svg">
<path d="M30 0C13.4573 0 0 13.4573 0 30C0 46.5427 13.4573 60 30 60C46.5427 60 60 46.5427 60 30C60 13.4573 46.5427 0 30 0ZM30 47.4998C28.6198 47.4998 27.5002 46.3802 27.5002 45C27.5002 43.6198 28.6198 42.5002 30 42.5002C31.3802 42.5002 32.4998 43.6198 32.4998 45C32.4998 46.3802 31.3802 47.4998 30 47.4998ZM33.9574 31.6049C33.0725 32.0123 32.4998 32.905 32.4998 33.8777V35.0002C32.4998 36.3799 31.3824 37.5 30 37.5C28.6176 37.5 27.5002 36.3799 27.5002 35.0002V33.8777C27.5002 30.9599 29.2149 28.2852 31.8626 27.0625C34.4101 25.8902 36.2498 22.7774 36.2498 21.2498C36.2498 17.8052 33.4474 15 30 15C26.5526 15 23.7502 17.8052 23.7502 21.2498C23.7502 22.63 22.6323 23.7502 21.2498 23.7502C19.8674 23.7502 18.75 22.63 18.75 21.2498C18.75 15.0476 23.7973 9.99985 30 9.99985C36.2027 9.99985 41.25 15.0476 41.25 21.2498C41.25 24.6277 38.3199 29.5926 33.9574 31.6049Z" fill="#6F6E6E"/>
</svg>
