<svg width="38" height="47" viewBox="0 0 38 47" fill="none" xmlns="http://www.w3.org/2000/svg">
<path d="M9.58583 2.54267C15.5162 -0.903112 22.8055 -0.842886 28.6802 2.70043C34.4971 6.31591 38.0325 12.7685 37.9998 19.7096C37.8642 26.6053 34.0732 33.0871 29.3346 38.098C26.5995 41.0031 23.5399 43.572 20.2183 45.7521C19.8762 45.9499 19.5015 46.0823 19.1126 46.1429C18.7383 46.1269 18.3739 46.0163 18.052 45.8211C12.9809 42.5452 8.53191 38.3638 4.91918 33.4779C1.89617 29.3994 0.178694 24.472 0 19.3649L0.013534 18.6219C0.26036 11.9555 3.8673 5.86538 9.58583 2.54267ZM21.4626 13.6658C19.0518 12.6411 16.2723 13.1978 14.4219 15.0761C12.5715 16.9544 12.0152 19.7837 13.0127 22.243C14.0103 24.7023 16.3649 26.3064 18.9772 26.3064C20.6886 26.3187 22.3337 25.6332 23.5459 24.4027C24.7582 23.1722 25.4369 21.4989 25.4309 19.7556C25.4399 17.0947 23.8734 14.6906 21.4626 13.6658Z" fill="#F4F4F4"/>
</svg>
